<svg width="145" height="143" viewBox="0 0 145 143" fill="none" xmlns="http://www.w3.org/2000/svg">
<rect width="145" height="143" fill="#F0F0F0"/>
<g id="Landing Page - 2" clip-path="url(#clip0_0_88)">
<rect width="1440" height="4628" transform="translate(-1117 -262)" fill="white"/>
<g id="Hero">
<g id="designer_1">
<path id="Path" opacity="0.5" d="M-381.365 -224.306C-501.303 -123.783 -519.889 66.2976 -601.119 206.527C-629.396 255.322 -665.933 298.992 -684.996 353.123C-728.762 477.026 -668.528 617.572 -587.907 715.981C-549.464 762.927 -504.56 805.936 -450.23 825.723C-408.45 840.94 -363.652 841.574 -319.675 841.971L450.789 849.896C536.811 850.768 632.391 847.624 694.239 781.208C736.866 735.478 754.182 668.692 768.876 604.944C786.933 526.613 803.296 441.546 775.204 366.94C743.115 281.582 661.965 233.21 611.554 159.555C529.741 40.2225 531.621 -140.269 427.437 -235.534C378.799 -279.996 314.621 -297.432 252.083 -306.15C134.184 -322.609 22.5063 -291.541 -93.275 -295.873C-192.244 -299.572 -299.261 -293.126 -381.365 -224.306Z" fill="#E7ECFF"/>
<g id="Group">
<path id="Shape" fill-rule="evenodd" clip-rule="evenodd" d="M144.1 59.2411V79.7145L131.391 79.8193C130.154 89.3456 126.531 98.4104 120.852 106.181L131.707 117.351L116.827 131.6L106.141 120.578C99.5523 125.062 92.1169 128.17 84.2848 129.714V143H63.7142V130.029C54.9297 128.76 46.5569 125.497 39.2444 120.494L30.308 129.316L15.7441 114.647L24.6173 105.993C19.0309 98.2193 15.4683 89.191 14.2477 79.7145H0V59.2411H14.7535C16.5825 51.0933 20.1791 43.4409 25.2918 36.8187L17.0509 28.3318L31.9308 14.0821L40.3614 22.8205C47.3317 18.2143 55.2557 15.2276 63.5455 14.0821V0H84.1162V14.3964C92.4849 16.0545 100.394 19.493 107.3 24.476L117.839 14.1659L132.318 28.709L121.78 39.1867C125.912 45.2671 128.844 52.0725 130.421 59.2411H144.1ZM37.9588 72.1496C37.9355 91.211 53.4581 106.682 72.6295 106.705C81.8411 106.733 90.6847 103.113 97.2062 96.6445C103.728 90.1762 107.39 81.3922 107.385 72.2334C107.408 53.1721 91.8852 37.7011 72.7138 37.678C53.5424 37.6548 37.9821 53.0883 37.9588 72.1496Z" fill="#505F98"/>
</g>
</g>
</g>
</g>
<defs>
<clipPath id="clip0_0_88">
<rect width="1440" height="4628" fill="white" transform="translate(-1117 -262)"/>
</clipPath>
</defs>
</svg>
